<?xml version="1.0" encoding="UTF-8" standalone="no"?>
<!DOCTYPE svg PUBLIC "-//W3C//DTD SVG 1.1//EN" "http://www.w3.org/Graphics/SVG/1.1/DTD/svg11.dtd">
<svg width="100%" height="100%" viewBox="0 0 10000 1709" version="1.1" xmlns="http://www.w3.org/2000/svg" xmlns:xlink="http://www.w3.org/1999/xlink" xml:space="preserve" xmlns:serif="http://www.serif.com/" style="fill-rule:evenodd;clip-rule:evenodd;stroke-linejoin:round;stroke-miterlimit:2;">
    <g transform="matrix(1.50779,0,0,1.50779,-808.27,-1250.25)">
        <g transform="matrix(1.14273,0,0,1.31951,260.728,-266.036)">
            <path d="M515.19,944.515L744.163,1059L973.137,944.515L1202.11,1059L1202.11,1287.98L973.137,1173.49L744.163,1287.98L515.19,1173.49L515.19,944.515Z" style="fill:url(#_Linear1);"/>
        </g>
        <g transform="matrix(1.14273,0,0,1.31951,522.382,-341.569)">
            <path d="M1431.08,1745.92C1431.08,1745.92 1553.78,1684.57 1619.54,1651.69C1644.61,1639.16 1660.06,1615.99 1660.06,1590.92C1660.06,1489.12 1660.06,1230.73 1660.06,1230.73C1660.06,1230.73 1537.36,1292.08 1471.6,1324.96C1446.53,1337.5 1431.08,1360.66 1431.08,1385.74C1431.08,1487.53 1431.08,1745.92 1431.08,1745.92Z" style="fill:rgb(155,188,15);"/>
        </g>
        <g transform="matrix(1.14273,0,0,1.13101,1503.58,-55.6227)">
            <path d="M114.487,1049.46L572.433,782.326L572.433,1049.46L343.46,1183.03C343.46,1183.03 343.46,1484.49 343.46,1603.25C343.46,1632.5 328.015,1659.53 302.943,1674.15C237.183,1712.51 114.487,1784.08 114.487,1784.08L114.487,1049.46Z" style="fill:rgb(155,188,15);"/>
        </g>
        <g transform="matrix(1.14273,0,0,1.13101,980.277,-55.6227)">
            <path d="M114.487,1049.46L343.46,915.893L343.46,1603.25C343.46,1632.5 328.015,1659.53 302.943,1674.15C237.183,1712.51 114.487,1784.08 114.487,1784.08L114.487,1049.46Z" style="fill:rgb(155,188,15);"/>
        </g>
        <g transform="matrix(1.14273,0,0,1.13101,456.968,-55.6227)">
            <path d="M114.487,1049.46L343.46,915.893L343.46,1603.25C343.46,1632.5 328.015,1659.53 302.943,1674.15C237.183,1712.51 114.487,1784.08 114.487,1784.08L114.487,1049.46Z" style="fill:rgb(155,188,15);"/>
        </g>
    </g>
    <defs>
        <linearGradient id="_Linear1" x1="0" y1="0" x2="1" y2="0" gradientUnits="userSpaceOnUse" gradientTransform="matrix(-2.399e-13,-343.46,396.593,-2.07759e-13,744.163,1287.98)"><stop offset="0" style="stop-color:rgb(61,111,60);stop-opacity:1"/><stop offset="1" style="stop-color:rgb(24,64,22);stop-opacity:1"/></linearGradient>
    </defs>
</svg>
