<?xml version="1.0" encoding="UTF-8" standalone="no"?><!DOCTYPE svg PUBLIC "-//W3C//DTD SVG 1.1//EN" "http://www.w3.org/Graphics/SVG/1.1/DTD/svg11.dtd"><svg width="100%" height="100%" viewBox="0 0 41667 7121" version="1.1" xmlns="http://www.w3.org/2000/svg" xmlns:xlink="http://www.w3.org/1999/xlink" xml:space="preserve" xmlns:serif="http://www.serif.com/" style="fill-rule:evenodd;clip-rule:evenodd;stroke-linejoin:round;stroke-miterlimit:2;"><path d="M1978.77,949.067l1643.83,949.066l1643.83,-949.066l1643.83,949.066l0,1898.13l-1643.83,-949.066l-1643.83,949.066l-1643.83,-949.066l0,-1898.13Z" style="fill:url(#_Linear1);"/><path d="M10197.9,7118c0,-0 1016.65,-586.965 1450.91,-837.687c119.377,-68.922 192.917,-196.296 192.917,-334.141c-0,-744.392 -0,-3098.97 -0,-3098.97c-0,-0 -1016.65,586.965 -1450.91,837.686c-119.377,68.922 -192.917,196.296 -192.917,334.141c0,744.392 0,3098.97 0,3098.97Z" style="fill:#fff;"/><path d="M6910.27,1898.13l3287.66,-1898.13l0,1898.13l-1643.83,949.067c-0,-0 -0,2354.58 -0,3098.97c-0,137.845 -73.54,265.219 -192.917,334.141c-434.262,250.722 -1450.91,837.687 -1450.91,837.687l0,-5219.87Z" style="fill:#fff;"/><path d="M3622.61,1898.13l1643.83,-949.066c0,-0 0,4000.55 0,4997.11c0,137.845 -73.539,265.219 -192.916,334.141c-434.262,250.722 -1450.91,837.687 -1450.91,837.687l-0,-5219.87Z" style="fill:#fff;"/><path d="M334.942,1898.13l1643.83,-949.066c0,-0 0,4000.55 0,4997.11c0,137.845 -73.539,265.219 -192.916,334.141c-434.262,250.722 -1450.91,837.687 -1450.91,837.687l-0,-5219.87Z" style="fill:#fff;"/><defs><linearGradient id="_Linear1" x1="0" y1="0" x2="1" y2="0" gradientUnits="userSpaceOnUse" gradientTransform="matrix(-1.72228e-12,-2847.2,2847.2,-1.72228e-12,3622.6,3796.27)"><stop offset="0" style="stop-color:#cd92ff;stop-opacity:1"/><stop offset="1" style="stop-color:#614490;stop-opacity:1"/></linearGradient></defs></svg>